<?xml version="1.0" encoding="utf-8"?><svg width="18" height="18" style="vertical-align: text-top;"  xmlns="http://www.w3.org/2000/svg" xmlns:xlink="http://www.w3.org/1999/xlink">
  <defs>
    <path id="b" d="M12.0279616 15.6568712c-1.2069581.7494991-2.62201241 1.1658875-4.1203052 1.1658875C3.53763576 16.8227587 0 13.2834574 0 8.91137935 0 4.53930129 3.53763576 1 7.9076564 1c4.3700206 0 7.9076564 3.53930129 7.9076564 7.91137935 0 1.49899815-.4161924 2.91471875-1.1653388 4.12224505l1.1653388 2.9563575c.4161924.9160545.1248577 1.2491652-.8323849.8327768l-2.9549663-1.1658875zM3.12144332 7.45402c0 .46313646.37102326.83277677.82870366.83277677h7.49882642c.4584281 0 .8287036-.37284686.8287036-.83277677 0-.46313646-.3710232-.83277677-.8287036-.83277677H3.95014698c-.45842809 0-.82870366.37284686-.82870366.83277677zm0 3.3311071c0 .4631365.37102326.8327768.82870366.8327768h7.49882642c.4584281 0 .8287036-.3728469.8287036-.8327768 0-.4631365-.3710232-.83277678-.8287036-.83277678H3.95014698c-.45842809 0-.82870366.37284688-.82870366.83277678z"/>
    <filter id="a" width="125%" height="125%" filterUnits="objectBoundingBox">
      <feOffset dy="1" in="SourceAlpha" result="shadowOffsetOuter1"/>
      <feGaussianBlur in="shadowOffsetOuter1" result="shadowBlurOuter1" stdDeviation=".5"/>
      <feColorMatrix in="shadowBlurOuter1" values="0 0 0 0 0 0 0 0 0 0 0 0 0 0 0 0 0 0 0.0729449728 0"/>
    </filter>
  </defs>
  <g fill="none" fill-rule="evenodd" transform="translate(1 -1)">
    <use fill="#000" filter="url(#a)" xlink:href="#b"/>
    <use fill="#FFF" xlink:href="#b"/>
  </g>
</svg>
